<?xml version="1.0" encoding="UTF-8" standalone="no"?>
<!DOCTYPE svg PUBLIC "-//W3C//DTD SVG 1.1//EN" "http://www.w3.org/Graphics/SVG/1.1/DTD/svg11.dtd">
<svg width="100%" height="100%" viewBox="0 0 1752 1635" version="1.1" xmlns="http://www.w3.org/2000/svg" xmlns:xlink="http://www.w3.org/1999/xlink" xml:space="preserve" xmlns:serif="http://www.serif.com/" style="fill-rule:evenodd;clip-rule:evenodd;stroke-linejoin:round;stroke-miterlimit:2;">
    <g transform="matrix(1,0,0,1,-349.001,-407.664)">
        <g>
            <g>
                <path d="M379.382,407.664L2070.62,407.664C2087.4,407.664 2101,421.266 2101,438.045L2101,1596.52L349.001,1596.52L349.001,438.045C349.001,421.266 362.604,407.664 379.382,407.664Z" style="fill:rgb(45,43,42);fill-rule:nonzero;"/>
                <rect x="998.181" y="1737.3" width="453.639" height="258.11" style="fill:rgb(165,188,202);fill-rule:nonzero;"/>
                <rect x="385.851" y="495.365" width="1678.3" height="1105.58" style="fill:rgb(255,226,114);fill-rule:nonzero;"/>
                <path d="M2030.45,1815.52L419.554,1815.52C380.589,1815.52 349.001,1783.93 349.001,1744.96L349.001,1596.52L2101,1596.52L2101,1744.96C2101,1783.93 2069.41,1815.52 2030.45,1815.52Z" style="fill:rgb(245,245,245);fill-rule:nonzero;"/>
                <path d="M1749.03,2042.34L700.958,2042.34C675.042,2042.34 654.035,2021.33 654.035,1995.41C654.035,1969.5 675.042,1948.48 700.958,1948.48L1749.03,1948.48C1774.95,1948.48 1795.96,1969.5 1795.96,1995.41C1795.96,2021.33 1774.95,2042.34 1749.03,2042.34Z" style="fill:rgb(244,241,239);fill-rule:nonzero;"/>
                <path d="M1764.67,1706.02C1764.67,1673.61 1738.42,1647.35 1706.02,1647.35C1673.62,1647.35 1647.35,1673.61 1647.35,1706.02C1647.35,1738.42 1673.62,1764.68 1706.02,1764.68C1738.42,1764.68 1764.67,1738.42 1764.67,1706.02Z" style="fill:rgb(221,221,221);fill-rule:nonzero;"/>
                <rect x="349.001" y="1596.52" width="1752" height="32.26" style="fill:rgb(45,43,42);fill-rule:nonzero;"/>
                <rect x="774.425" y="597.575" width="901.155" height="901.155" style="fill:white;fill-rule:nonzero;"/>
                <path d="M1397.18,797.75C1397.18,892.844 1320.09,969.932 1225,969.932C1129.9,969.932 1052.81,892.844 1052.81,797.75C1052.81,702.656 1129.9,625.567 1225,625.567C1320.09,625.567 1397.18,702.656 1397.18,797.75Z" style="fill:rgb(46,110,255);fill-rule:nonzero;"/>
                <clipPath id="_clip1">
                    <path d="M1397.18,797.75C1397.18,892.844 1320.09,969.932 1225,969.932C1129.9,969.932 1052.81,892.844 1052.81,797.75C1052.81,702.656 1129.9,625.567 1225,625.567C1320.09,625.567 1397.18,702.656 1397.18,797.75Z" clip-rule="nonzero"/>
                </clipPath>
                <g clip-path="url(#_clip1)">
                    <rect x="1199.81" y="856.31" width="50.37" height="74.737" style="fill:rgb(254,200,136);fill-rule:nonzero;"/>
                    <path d="M1250.18,862.768C1250.18,862.768 1225,879.703 1199.81,862.25L1199.81,856.715L1250.18,856.715L1250.18,862.768Z" style="fill:rgb(235,159,108);fill-rule:nonzero;"/>
                    <path d="M1224.99,698.273C1200.54,698.273 1161.86,712.175 1161.86,777.321C1161.86,788.689 1163.47,799.494 1165.72,809.039C1171.76,834.745 1190.52,855.806 1215.59,864.09C1215.63,864.102 1215.66,864.114 1215.7,864.126C1220.9,865.833 1226.49,866.056 1231.81,864.803C1232.72,864.588 1233.61,864.35 1234.4,864.09C1259.47,855.805 1278.23,834.746 1284.27,809.041C1286.52,799.495 1288.12,788.69 1288.12,777.321C1288.12,712.175 1249.45,698.273 1224.99,698.273Z" style="fill:rgb(254,200,136);fill-rule:nonzero;"/>
                    <path d="M1291,776.044C1296.06,777.093 1298.88,784.153 1297.29,791.814C1295.7,799.473 1290.31,804.832 1285.25,803.781C1280.19,802.731 1277.37,795.671 1278.96,788.012C1280.55,780.353 1285.94,774.993 1291,776.044Z" style="fill:rgb(254,200,136);fill-rule:nonzero;"/>
                    <path d="M1291.45,782.037C1295.22,782.817 1295.15,790.543 1289.49,791.508C1283.29,792.563 1291.29,801.76 1287.53,800.979C1283.76,800.199 1281.59,795.327 1282.68,790.095C1283.76,784.864 1287.69,781.257 1291.45,782.037Z" style="fill:rgb(231,106,65);fill-rule:nonzero;"/>
                    <path d="M1158.99,776.044C1153.93,777.093 1151.11,784.153 1152.7,791.814C1154.29,799.473 1159.68,804.832 1164.74,803.781C1169.8,802.731 1172.62,795.671 1171.03,788.012C1169.44,780.353 1164.05,774.993 1158.99,776.044Z" style="fill:rgb(254,200,136);fill-rule:nonzero;"/>
                    <path d="M1158.53,782.037C1154.77,782.817 1154.84,790.543 1160.5,791.508C1166.7,792.563 1158.7,801.76 1162.46,800.979C1166.23,800.199 1168.4,795.327 1167.31,790.095C1166.23,784.864 1162.3,781.257 1158.53,782.037Z" style="fill:rgb(231,106,65);fill-rule:nonzero;"/>
                    <path d="M1264.18,885.177C1256.22,881.757 1250.18,879.641 1250.18,879.641C1237.19,895.623 1212.8,895.623 1199.81,879.641C1199.81,879.641 1193.75,881.761 1185.78,885.188C1162.69,895.119 1146.46,916.563 1143.44,941.524C1140.96,961.995 1140.15,981.895 1140.15,981.895L1309.84,981.895C1309.84,981.895 1309.05,962.474 1306.64,942.27C1303.63,917.031 1287.53,895.213 1264.18,885.177Z" style="fill:rgb(255,210,84);fill-rule:nonzero;"/>
                    <path d="M1288.13,902.102C1273.63,924.538 1269.76,952.302 1278.38,977.582L1279.85,981.895L1222.57,981.895L1250.18,879.641C1280.26,890.002 1288.13,902.102 1288.13,902.102Z" style="fill:rgb(146,184,94);fill-rule:nonzero;"/>
                    <path d="M1161.86,902.028C1176.36,924.464 1179.79,952.302 1171.16,977.582L1169.69,981.895L1226.97,981.895L1199.81,879.641C1172.93,888.4 1161.86,902.028 1161.86,902.028Z" style="fill:rgb(146,184,94);fill-rule:nonzero;"/>
                    <path d="M1161.77,776.087C1172.55,764.654 1185.23,758.781 1199.81,760.166C1263.73,766.235 1226.97,723.743 1260.36,733.771C1280.7,739.88 1269.32,758.856 1285.7,774.941L1288.12,776.087L1290.31,766.704C1296.47,736.828 1281.16,706.665 1253.41,693.992L1253.41,693.991C1234.04,685.142 1211.6,686.122 1193.07,696.626L1192.99,696.67C1170.47,709.438 1157.59,734.288 1160.15,760.052L1161.77,776.087Z" style="fill:rgb(128,93,65);fill-rule:nonzero;"/>
                </g>
                <rect x="886.9" y="1153.13" width="676.19" height="98" style="fill:rgb(179,179,179);fill-rule:nonzero;"/>
                <rect x="886.9" y="1020.83" width="676.19" height="98" style="fill:rgb(179,179,179);fill-rule:nonzero;"/>
                <path d="M1041.58,1202.13C1041.58,1214.97 1031.18,1225.37 1018.34,1225.37C1005.51,1225.37 995.103,1214.97 995.103,1202.13C995.103,1189.3 1005.51,1178.9 1018.34,1178.9C1031.18,1178.9 1041.58,1189.3 1041.58,1202.13Z" style="fill:rgb(128,128,128);fill-rule:nonzero;"/>
                <path d="M1106.92,1202.13C1106.92,1214.97 1096.52,1225.37 1083.68,1225.37C1070.85,1225.37 1060.44,1214.97 1060.44,1202.13C1060.44,1189.3 1070.85,1178.9 1083.68,1178.9C1096.52,1178.9 1106.92,1189.3 1106.92,1202.13Z" style="fill:rgb(128,128,128);fill-rule:nonzero;"/>
                <path d="M1172.26,1202.13C1172.26,1214.97 1161.86,1225.37 1149.02,1225.37C1136.19,1225.37 1125.78,1214.97 1125.78,1202.13C1125.78,1189.3 1136.19,1178.9 1149.02,1178.9C1161.86,1178.9 1172.26,1189.3 1172.26,1202.13Z" style="fill:rgb(128,128,128);fill-rule:nonzero;"/>
                <path d="M1237.6,1202.13C1237.6,1214.97 1227.2,1225.37 1214.36,1225.37C1201.53,1225.37 1191.12,1214.97 1191.12,1202.13C1191.12,1189.3 1201.53,1178.9 1214.36,1178.9C1227.2,1178.9 1237.6,1189.3 1237.6,1202.13Z" style="fill:rgb(128,128,128);fill-rule:nonzero;"/>
                <path d="M976.238,1202.13C976.238,1214.97 965.834,1225.37 953,1225.37C940.166,1225.37 929.762,1214.97 929.762,1202.13C929.762,1189.3 940.166,1178.9 953,1178.9C965.834,1178.9 976.238,1189.3 976.238,1202.13Z" style="fill:rgb(128,128,128);fill-rule:nonzero;"/>
                <path d="M1410.38,1048.15L934.136,1048.15C921.302,1048.15 910.898,1058.56 910.898,1071.39C910.898,1084.22 921.302,1094.63 934.136,1094.63L1410.38,1094.63C1423.22,1094.63 1433.62,1084.22 1433.62,1071.39C1433.62,1058.56 1423.22,1048.15 1410.38,1048.15Z" style="fill:rgb(128,128,128);fill-rule:nonzero;"/>
                <path d="M1070.61,1324.63L1358.12,1324.63C1386.98,1324.63 1410.38,1348.03 1410.38,1376.9C1410.38,1405.77 1386.98,1429.17 1358.12,1429.17L1070.61,1429.17C1041.74,1429.17 1018.34,1405.77 1018.34,1376.9C1018.34,1348.03 1041.74,1324.63 1070.61,1324.63Z" style="fill:rgb(252,41,0);fill-rule:nonzero;"/>
                <path d="M1104.13,1363.83L1324.59,1363.83C1331.81,1363.83 1337.66,1369.68 1337.66,1376.9C1337.66,1384.12 1331.81,1389.97 1324.59,1389.97L1104.13,1389.97C1096.92,1389.97 1091.07,1384.12 1091.07,1376.9C1091.07,1369.68 1096.92,1363.83 1104.13,1363.83Z" style="fill:white;fill-rule:nonzero;"/>
                <path d="M1212.75,1292.38L899.15,1292.38C892.385,1292.38 886.9,1286.89 886.9,1280.13C886.9,1273.36 892.385,1267.88 899.15,1267.88L1212.75,1267.88C1219.52,1267.88 1225,1273.36 1225,1280.13C1225,1286.89 1219.52,1292.38 1212.75,1292.38Z" style="fill:rgb(128,128,128);fill-rule:nonzero;"/>
                <path d="M1550.84,1292.38L1336.46,1292.38C1329.69,1292.38 1324.21,1286.89 1324.21,1280.13C1324.21,1273.36 1329.69,1267.88 1336.46,1267.88L1550.84,1267.88C1557.61,1267.88 1563.09,1273.36 1563.09,1280.13C1563.09,1286.89 1557.61,1292.38 1550.84,1292.38Z" style="fill:rgb(0,98,247);fill-rule:nonzero;"/>
                <path d="M825.65,1020.83C814.825,1020.83 806.05,1029.61 806.05,1040.43L806.05,1099.23C806.05,1110.06 814.825,1118.83 825.65,1118.83C836.475,1118.83 845.25,1110.06 845.25,1099.23L845.25,1040.43C845.25,1029.61 836.475,1020.83 825.65,1020.83Z" style="fill:rgb(128,128,128);fill-rule:nonzero;"/>
                <path d="M825.65,1153.13C814.825,1153.13 806.05,1161.91 806.05,1172.73L806.05,1231.53C806.05,1242.36 814.825,1251.13 825.65,1251.13C836.475,1251.13 845.25,1242.36 845.25,1231.53L845.25,1172.73C845.25,1161.91 836.475,1153.13 825.65,1153.13Z" style="fill:rgb(128,128,128);fill-rule:nonzero;"/>
            </g>
        </g>
    </g>
</svg>
