<svg class="svg-icon" style="width: 1em; height: 1em;vertical-align: middle;fill: currentColor;overflow: hidden;" viewBox="0 0 1024 1024" version="1.1" xmlns="http://www.w3.org/2000/svg"><path d="M237.037037 222.814815v-108.088889c0-6.637037 0.948148-9.481481 1.896296-12.325926s3.792593-4.740741 5.688889-5.688889c2.844444-0.948148 4.740741-1.896296 12.325926-1.896296h472.177778c6.637037 0 9.481481 0.948148 12.325926 1.896296 2.844444 0.948148 4.740741 3.792593 5.688889 5.688889s1.896296 4.740741 1.896296 12.325926v785.066667c0 6.637037-0.948148 9.481481-1.896296 12.325926-0.948148 2.844444-3.792593 4.740741-5.688889 5.688888-2.844444 0.948148-4.740741 1.896296-12.325926 1.896297h-472.177778c-6.637037 0-9.481481-0.948148-12.325926-1.896297-2.844444-0.948148-4.740741-3.792593-5.688889-5.688888-0.948148-2.844444-1.896296-4.740741-1.896296-12.325926v-676.977778z" fill="#4CC3FF" /><path d="M341.333333 199.111111h322.370371c10.42963 0 18.962963 8.533333 18.962963 18.962963v540.444445c0 10.42963-8.533333 18.962963-18.962963 18.962962h-322.370371c-10.42963 0-18.962963-8.533333-18.962963-18.962962v-540.444445c0-10.42963 8.533333-18.962963 18.962963-18.962963z" fill="#CCEEFF" /><path d="M502.518519 843.851852m-28.444445 0a28.444444 28.444444 0 1 0 56.888889 0 28.444444 28.444444 0 1 0-56.888889 0Z" fill="#CCEEFF" /><path d="M507.259259 156.444444m-14.222222 0a14.222222 14.222222 0 1 0 28.444444 0 14.222222 14.222222 0 1 0-28.444444 0Z" fill="#CCEEFF" /></svg>